HIERARCHY
ROOT joint_Root
{
	OFFSET 0.0 0.0 0.0
	CHANNELS 6 Xposition Yposition Zposition Zrotation Xrotation Yrotation 
	JOINT Hips
	{
		OFFSET 4.5925 91.4895 -427.239
		CHANNELS 6 Xposition Yposition Zposition Zrotation Xrotation Yrotation 
		JOINT Spine
		{
			OFFSET 15.7357 0.0 0.0
			CHANNELS 6 Xposition Yposition Zposition Zrotation Xrotation Yrotation 
			JOINT Chest
			{
				OFFSET 8.98455 -0.406207 0.0
				CHANNELS 6 Xposition Yposition Zposition Zrotation Xrotation Yrotation 
				JOINT Neck
				{
					OFFSET 16.3773 0.0 0.0
					CHANNELS 6 Xposition Yposition Zposition Zrotation Xrotation Yrotation 
					JOINT Head
					{
						OFFSET 6.45672 0.0 0.0
						CHANNELS 6 Xposition Yposition Zposition Zrotation Xrotation Yrotation 
						End Site
						{
							OFFSET 0.0 0.0 0.0
						}
					}
				}
				JOINT Shoulder_L
				{
					OFFSET 12.9942 -0.242716 4.98039
					CHANNELS 6 Xposition Yposition Zposition Zrotation Xrotation Yrotation 
					JOINT UpperArm_L
					{
						OFFSET 5.34809 0.0 0.0
						CHANNELS 6 Xposition Yposition Zposition Zrotation Xrotation Yrotation 
						JOINT LowerArm_L
						{
							OFFSET 24.3286 1.87007e-05 0.0
							CHANNELS 6 Xposition Yposition Zposition Zrotation Xrotation Yrotation 
							JOINT Hand_L
							{
								OFFSET 22.2916 0.0 0.0
								CHANNELS 6 Xposition Yposition Zposition Zrotation Xrotation Yrotation 
								End Site
								{
									OFFSET 0.0 0.0 0.0
								}
							}
						}
					}
				}
				JOINT Shoulder_R
				{
					OFFSET 12.9945 -0.242716 -4.98039
					CHANNELS 6 Xposition Yposition Zposition Zrotation Xrotation Yrotation 
					JOINT UpperArm_R
					{
						OFFSET -5.34813 0.0 0.0
						CHANNELS 6 Xposition Yposition Zposition Zrotation Xrotation Yrotation 
						JOINT LowerArm_R
						{
							OFFSET -24.3289 0.000322201 0.0
							CHANNELS 6 Xposition Yposition Zposition Zrotation Xrotation Yrotation 
							JOINT Hand_R
							{
								OFFSET -22.2915 -0.000108084 0.0
								CHANNELS 6 Xposition Yposition Zposition Zrotation Xrotation Yrotation 
								End Site
								{
									OFFSET 0.0 0.0 0.0
								}
							}
						}
					}
				}
			}
		}
		JOINT UpperLeg_L
		{
			OFFSET -2.19248 -6.46944 0.0
			CHANNELS 6 Xposition Yposition Zposition Zrotation Xrotation Yrotation 
			JOINT LowerLeg_L
			{
				OFFSET 39.0811 0.0 -1.23785e-05
				CHANNELS 6 Xposition Yposition Zposition Zrotation Xrotation Yrotation 
				JOINT Foot_L
				{
					OFFSET 40.9854 0.0 -1.26872e-05
					CHANNELS 6 Xposition Yposition Zposition Zrotation Xrotation Yrotation 
					JOINT Toes_L
					{
						OFFSET 11.7543 0.0 0.0
						CHANNELS 6 Xposition Yposition Zposition Zrotation Xrotation Yrotation 
						End Site
						{
							OFFSET 0.0 0.0 0.0
						}
					}
				}
			}
		}
		JOINT UpperLeg_R
		{
			OFFSET -2.19251 6.46944 0.0
			CHANNELS 6 Xposition Yposition Zposition Zrotation Xrotation Yrotation 
			JOINT LowerLeg_R
			{
				OFFSET -39.0811 -0.00228153 -0.0401928
				CHANNELS 6 Xposition Yposition Zposition Zrotation Xrotation Yrotation 
				JOINT Foot_R
				{
					OFFSET -40.9854 0.0 0.0
					CHANNELS 6 Xposition Yposition Zposition Zrotation Xrotation Yrotation 
					JOINT Toes_R
					{
						OFFSET -11.7543 0.0 0.0
						CHANNELS 6 Xposition Yposition Zposition Zrotation Xrotation Yrotation 
						End Site
						{
							OFFSET 0.0 0.0 0.0
						}
					}
				}
			}
		}
	}
}
MOTION
Frames:	9
Frame Time:	0.0333333
0.000000 0.000000 0.000000 0.000000 0.000000 -0.000000 3.262670 90.330900 2.176410 90.509100 -7.156070 7.181960 15.735700 0.000005 -0.000001 85.343900 85.605900 -87.932700 8.984550 -0.406207 -0.000000 0.985795 -0.560052 -5.168530 16.377300 -0.000001 -0.000001 8.684350 -4.522580 8.187060 6.456720 -0.000001 -0.000000 1.355510 -0.175841 0.409728 12.994200 -0.242716 4.980390 -89.274800 -2.054600 -70.553000 5.348090 -0.000007 -0.000001 -70.361500 22.242800 -2.477690 24.328600 0.000019 0.000005 5.603970 20.512100 -15.643100 22.291600 -0.000001 0.000005 12.588800 5.111920 4.838230 12.994500 -0.242716 -4.980390 96.098500 -12.892700 -64.412700 -5.348130 -0.000001 -0.000004 -70.474300 -61.725500 -122.708000 -24.328900 0.000322 -0.000009 1.245660 0.653677 -62.043600 -22.291500 -0.000108 -0.000004 61.227700 5.649820 -27.519000 -2.192480 -6.469440 -0.000000 -179.551000 -12.463700 -2.328240 39.081100 -0.000007 -0.000012 -0.200154 0.323486 31.747100 40.985400 -0.000006 -0.000013 1.741870 0.077283 -72.664200 11.754300 -0.000000 0.000003 -0.000319 -0.002736 -16.679300 -2.192510 6.469440 -0.000001 172.965000 13.045800 175.166000 -39.081100 -0.002282 -0.040193 0.014642 -0.016454 34.599300 -40.985400 0.000008 0.000006 4.001100 11.005700 -71.143100 -11.754300 -0.000006 -0.000006 -0.005632 -0.067454 -19.318100
0.000000 0.000000 0.000000 0.000000 0.000000 -0.000000 2.979960 90.324400 2.223810 90.221500 -6.304380 7.619600 15.735700 0.000005 -0.000001 82.213800 85.522600 -84.949200 8.984550 -0.406207 -0.000000 1.087270 -1.053380 -5.456170 16.377300 -0.000001 -0.000001 8.641860 -4.366200 7.232990 6.456720 -0.000001 -0.000000 1.475730 -0.208967 0.367000 12.994200 -0.242716 4.980390 -89.388900 -1.732410 -70.566900 5.348090 -0.000007 -0.000001 -70.181700 22.192200 -2.572190 24.328600 0.000019 0.000005 5.506810 19.003600 -16.492800 22.291600 -0.000001 0.000005 12.777100 5.119600 4.660030 12.994500 -0.242716 -4.980390 95.286400 -11.760600 -65.585200 -5.348130 -0.000001 -0.000004 -62.443800 -61.005800 -110.681000 -24.328900 0.000322 -0.000009 -6.509750 -4.835530 -53.595900 -22.291500 -0.000108 -0.000004 49.215700 5.694580 -22.241800 -2.192480 -6.469440 -0.000000 -179.016000 -11.780100 -1.968390 39.081100 -0.000007 -0.000012 -0.206576 0.330771 31.986300 40.985400 -0.000006 -0.000013 1.608700 0.341391 -72.746200 11.754300 -0.000000 0.000003 -0.000305 -0.002635 -16.675700 -2.192510 6.469440 -0.000001 173.198000 13.783300 175.936000 -39.081100 -0.002282 -0.040193 0.014693 -0.016581 34.510900 -40.985400 0.000008 0.000006 4.102270 10.869900 -71.181500 -11.754300 -0.000006 -0.000006 -0.005400 -0.065286 -19.229700
0.000000 0.000000 0.000000 0.000000 0.000000 -0.000000 2.673910 90.302700 2.241210 89.751300 -6.002220 8.180310 15.735700 0.000005 -0.000001 82.542000 85.409600 -85.574200 8.984550 -0.406207 -0.000000 1.317580 -1.020660 -6.047430 16.377300 -0.000001 -0.000001 8.098630 -3.624530 5.431490 6.456720 -0.000001 -0.000000 1.345200 0.031088 -0.008808 12.994200 -0.242716 4.980390 -89.622600 -1.056180 -70.332600 5.348090 -0.000007 -0.000001 -68.640500 23.616200 -3.789010 24.328600 0.000019 0.000005 5.022340 16.815700 -16.897700 22.291600 -0.000001 0.000005 11.964600 5.159350 3.715720 12.994500 -0.242716 -4.980390 94.162900 -10.518300 -68.264700 -5.348130 -0.000001 -0.000004 -54.658600 -59.974400 -95.416000 -24.328900 0.000322 -0.000009 -7.309620 -8.180570 -42.045100 -22.291500 -0.000108 -0.000004 32.666200 5.605520 -10.291100 -2.192480 -6.469440 -0.000000 -178.378000 -10.817400 -1.548890 39.081100 -0.000007 -0.000012 -0.215539 0.339942 32.376900 40.985400 -0.000006 -0.000013 1.234770 -0.127067 -72.913800 11.754300 -0.000000 0.000003 -0.000318 -0.002733 -16.679200 -2.192510 6.469440 -0.000001 173.503000 14.763500 176.773000 -39.081100 -0.002282 -0.040193 0.014372 -0.016170 34.420100 -40.985400 0.000008 0.000006 4.468510 11.422300 -71.240600 -11.754300 -0.000006 -0.000006 -0.005359 -0.064900 -19.214000
0.000000 0.000000 0.000000 0.000000 0.000000 -0.000000 2.306390 90.256200 2.159570 89.228900 -5.816470 8.521670 15.735700 0.000005 -0.000001 85.661700 85.402100 -89.188100 8.984550 -0.406207 -0.000000 1.397860 -0.499594 -7.040460 16.377300 -0.000001 -0.000001 7.510240 -2.629490 3.446290 6.456720 -0.000001 -0.000000 0.951778 0.393033 -0.262130 12.994200 -0.242716 4.980390 -89.855600 -0.399455 -70.116000 5.348090 -0.000007 -0.000001 -66.422500 24.268600 -5.330360 24.328600 0.000019 0.000005 5.804540 17.793100 -18.399300 22.291600 -0.000001 0.000005 10.788100 5.174680 3.346390 12.994500 -0.242716 -4.980390 93.193800 -9.542590 -71.399300 -5.348130 -0.000001 -0.000004 -45.693900 -58.145300 -76.147200 -24.328900 0.000322 -0.000009 -8.744820 -15.176900 -30.480200 -22.291500 -0.000108 -0.000004 19.489500 5.254410 1.465790 -2.192480 -6.469440 -0.000000 -177.602000 -10.279200 -1.525690 39.081100 -0.000007 -0.000012 -0.226127 0.348423 32.984000 40.985400 -0.000006 -0.000013 0.901762 -0.294429 -73.111300 11.754300 -0.000000 0.000003 -0.000343 -0.002907 -16.685400 -2.192510 6.469440 -0.000001 173.819000 16.213300 177.367000 -39.081100 -0.002282 -0.040193 0.013930 -0.015584 34.317500 -40.985400 0.000008 0.000006 4.968710 12.487000 -71.473300 -11.754300 -0.000006 -0.000006 -0.005508 -0.066300 -19.271000
0.000000 0.000000 0.000000 0.000000 0.000000 -0.000000 1.865250 90.225600 2.048530 88.752800 -5.489090 8.619890 15.735700 0.000005 -0.000001 88.500300 85.415000 -92.617600 8.984550 -0.406207 -0.000000 1.413670 -0.012079 -8.227150 16.377300 -0.000001 -0.000001 6.857750 -1.365270 1.332850 6.456720 -0.000001 -0.000000 0.041992 1.266530 -0.840890 12.994200 -0.242716 4.980390 -90.060800 0.165168 -69.814700 5.348090 -0.000007 -0.000001 -64.251300 23.697800 -6.454510 24.328600 0.000019 0.000005 7.064790 18.824800 -21.010200 22.291600 -0.000001 0.000005 10.970900 5.174810 3.342770 12.994500 -0.242716 -4.980390 92.415700 -8.489410 -74.054200 -5.348130 -0.000001 -0.000004 -46.675400 -55.798700 -63.227900 -24.328900 0.000322 -0.000009 -10.769400 -26.442300 -23.140300 -22.291500 -0.000108 -0.000004 16.062600 4.910190 9.159250 -2.192480 -6.469440 -0.000000 -176.775000 -10.048700 -1.715930 39.081100 -0.000007 -0.000012 -0.238165 0.359956 33.491000 40.985400 -0.000006 -0.000013 0.655643 -0.002169 -73.238300 11.754300 -0.000000 0.000003 -0.000351 -0.002963 -16.687300 -2.192510 6.469440 -0.000001 174.234000 17.604100 177.699000 -39.081100 -0.002282 -0.040193 0.013523 -0.015051 34.204100 -40.985400 0.000008 0.000006 5.452620 13.343900 -71.664300 -11.754300 -0.000006 -0.000006 -0.005456 -0.065809 -19.251000
0.000000 0.000000 0.000000 0.000000 0.000000 -0.000000 1.386890 90.199800 1.938330 88.519800 -4.891320 8.648850 15.735700 0.000005 -0.000001 89.297600 85.402500 -93.900200 8.984550 -0.406207 -0.000000 1.450680 0.140401 -9.198880 16.377300 -0.000001 -0.000001 6.349920 0.352822 -1.160570 6.456720 -0.000001 -0.000000 -1.236880 2.863350 -2.800240 12.994200 -0.242716 4.980390 -90.273900 0.738278 -69.646800 5.348090 -0.000007 -0.000001 -62.798300 22.538000 -6.630260 24.328600 0.000019 0.000005 7.486840 17.521300 -23.583800 22.291600 -0.000001 0.000005 12.359200 5.181790 3.174110 12.994500 -0.242716 -4.980390 91.592900 -6.169820 -75.494600 -5.348130 -0.000001 -0.000004 -52.208200 -55.766400 -56.411200 -24.328900 0.000322 -0.000009 -13.099100 -37.982000 -20.715400 -22.291500 -0.000108 -0.000004 20.072900 4.718540 12.807200 -2.192480 -6.469440 -0.000000 -176.267000 -9.418660 -1.988830 39.081100 -0.000007 -0.000012 -0.247596 0.369202 33.847300 40.985400 -0.000006 -0.000013 0.346445 0.170954 -73.251300 11.754300 -0.000000 0.000003 -0.000352 -0.002974 -16.687700 -2.192510 6.469440 -0.000001 174.643000 18.413100 177.898000 -39.081100 -0.002282 -0.040193 0.014047 -0.015867 34.126700 -40.985400 0.000008 0.000006 5.717490 13.368400 -71.913500 -11.754300 -0.000006 -0.000006 -0.005432 -0.065589 -19.242100
0.000000 0.000000 0.000000 0.000000 0.000000 -0.000000 1.007890 90.128600 1.859680 88.531300 -4.022600 8.837770 15.735700 0.000005 -0.000001 86.489400 85.331400 -91.359900 8.984550 -0.406207 -0.000000 1.559290 -0.308348 -9.728110 16.377300 -0.000001 -0.000001 5.664580 1.652380 -3.392710 6.456720 -0.000001 -0.000000 -1.715170 4.227810 -4.705330 12.994200 -0.242716 4.980390 -90.309600 0.833746 -69.629500 5.348090 -0.000007 -0.000001 -62.993500 21.328400 -5.981940 24.328600 0.000019 0.000005 6.881100 15.125100 -24.821000 22.291600 -0.000001 0.000005 14.399900 5.197540 2.781090 12.994500 -0.242716 -4.980390 91.015000 -4.024150 -75.830100 -5.348130 -0.000001 -0.000004 -49.625400 -53.049700 -47.819200 -24.328900 0.000322 -0.000009 -11.198700 -37.784500 -17.905800 -22.291500 -0.000108 -0.000004 24.644000 4.596410 14.955100 -2.192480 -6.469440 -0.000000 -176.098000 -8.633340 -2.180240 39.081100 -0.000007 -0.000012 -0.255993 0.375695 34.270400 40.985400 -0.000006 -0.000013 0.133900 0.353523 -73.306900 11.754300 -0.000000 0.000003 -0.000357 -0.003008 -16.688900 -2.192510 6.469440 -0.000001 174.819000 18.780600 178.110000 -39.081100 -0.002282 -0.040193 0.015651 -0.018097 34.329500 -40.985400 0.000008 0.000006 5.857120 12.752100 -72.332800 -11.754300 -0.000006 -0.000006 -0.005256 -0.063925 -19.174200
0.000000 0.000000 0.000000 0.000000 0.000000 -0.000000 0.832162 90.061200 1.834440 88.705800 -3.695370 9.022110 15.735700 0.000005 -0.000001 82.255700 85.304200 -87.286000 8.984550 -0.406207 -0.000000 1.516650 -0.991323 -10.038600 16.377300 -0.000001 -0.000001 5.298980 1.900000 -3.571030 6.456720 -0.000001 -0.000000 -1.723270 4.913180 -5.561080 12.994200 -0.242716 4.980390 -90.338400 0.911981 -69.643600 5.348090 -0.000007 -0.000001 -63.458000 20.584800 -4.996010 24.328600 0.000019 0.000005 6.074320 13.395800 -24.669800 22.291600 -0.000001 0.000005 14.998000 5.200370 2.710900 12.994500 -0.242716 -4.980390 90.837400 -3.175270 -75.218000 -5.348130 -0.000001 -0.000004 -51.804600 -50.178900 -47.174200 -24.328900 0.000322 -0.000009 -10.251600 -34.829500 -17.569200 -22.291500 -0.000108 -0.000004 28.914400 4.497740 16.634500 -2.192480 -6.469440 -0.000000 -176.145000 -8.409620 -2.183250 39.081100 -0.000007 -0.000012 -0.261121 0.379660 34.519700 40.985400 -0.000006 -0.000013 0.066463 0.533856 -73.378300 11.754300 -0.000000 0.000003 -0.000355 -0.002993 -16.688400 -2.192510 6.469440 -0.000001 174.826000 18.489900 178.087000 -39.081100 -0.002282 -0.040193 0.019055 -0.022724 34.747900 -40.985400 0.000008 0.000006 5.999590 12.066900 -72.617300 -11.754300 -0.000006 -0.000006 -0.005249 -0.063857 -19.171500
0.000000 0.000000 0.000000 0.000000 0.000000 -0.000000 0.918368 90.017700 1.849410 88.843100 -4.527710 9.359070 15.735700 0.000005 -0.000001 79.680400 85.326800 -84.625900 8.984550 -0.406207 -0.000000 1.388480 -1.398950 -9.865480 16.377300 -0.000001 -0.000001 5.729810 1.599790 -2.747050 6.456720 -0.000001 -0.000000 -1.038770 4.816440 -5.370750 12.994200 -0.242716 4.980390 -90.440300 1.181110 -69.554600 5.348090 -0.000007 -0.000001 -63.767200 21.232300 -4.577290 24.328600 0.000019 0.000005 5.229840 12.944400 -22.226400 22.291600 -0.000001 0.000005 13.521300 5.189630 2.979120 12.994500 -0.242716 -4.980390 90.886700 -3.247810 -74.721200 -5.348130 -0.000001 -0.000004 -55.994200 -48.704200 -52.398000 -24.328900 0.000322 -0.000009 -12.828700 -36.271400 -21.050200 -22.291500 -0.000108 -0.000004 29.967800 4.534280 16.024400 -2.192480 -6.469440 -0.000000 -176.178000 -9.100900 -1.738750 39.081100 -0.000007 -0.000012 -0.262175 0.380325 34.580700 40.985400 -0.000006 -0.000013 0.064283 0.354163 -73.509300 11.754300 -0.000000 0.000003 -0.000343 -0.002907 -16.685400 -2.192510 6.469440 -0.000001 174.724000 17.481200 178.142000 -39.081100 -0.002282 -0.040193 0.018539 -0.021754 35.028100 -40.985400 0.000008 0.000006 5.904480 11.977000 -72.685700 -11.754300 -0.000006 -0.000006 -0.005115 -0.062577 -19.119300
